<svg width="24" height="24" viewBox="0 0 24 24" fill="none" xmlns="http://www.w3.org/2000/svg">
<g clip-path="url(#clip0_201_478)">
<path fill-rule="evenodd" clip-rule="evenodd" d="M11.9732 3.25003C7.01125 3.25003 3 7.26045 3 12.2219C3 16.1878 5.57014 19.5449 9.13561 20.7331C9.58139 20.8224 9.74467 20.54 9.74467 20.3025C9.74467 20.0945 9.72998 19.3816 9.72998 18.6387C7.23386 19.1736 6.71406 17.5692 6.71406 17.5692C6.31292 16.5294 5.71855 16.2622 5.71855 16.2622C4.90157 15.7126 5.77806 15.7126 5.77806 15.7126C6.68431 15.772 7.15984 16.6335 7.15984 16.6335C7.96194 18 9.25445 17.6139 9.77443 17.3762C9.84863 16.7969 10.0865 16.3958 10.339 16.1731C8.3482 15.9651 6.25359 15.1927 6.25359 11.7465C6.25359 10.7661 6.60992 9.96402 7.17453 9.34021C7.08545 9.11745 6.77339 8.19633 7.2638 6.96349C7.2638 6.96349 8.02145 6.72579 9.7298 7.88443C10.4612 7.68804 11.2155 7.58814 11.9732 7.5873C12.7308 7.5873 13.5032 7.69138 14.2164 7.88443C15.9249 6.72579 16.6826 6.96349 16.6826 6.96349C17.173 8.19633 16.8607 9.11745 16.7717 9.34021C17.3511 9.96402 17.6928 10.7661 17.6928 11.7465C17.6928 15.1927 15.5982 15.9501 13.5924 16.1731C13.9194 16.4552 14.2015 16.9899 14.2015 17.8366C14.2015 19.0398 14.1868 20.0054 14.1868 20.3023C14.1868 20.54 14.3503 20.8224 14.7959 20.7333C18.3613 19.5447 20.9315 16.1878 20.9315 12.2219C20.9462 7.26045 16.9202 3.25003 11.9732 3.25003Z" fill="white"/>
</g>
<defs>
<clipPath id="clip0_201_478">
<rect width="18" height="17.5" fill="white" transform="translate(3 3.25003)"/>
</clipPath>
</defs>
</svg>
