<svg width="25" height="25" viewBox="0 0 25 25" fill="none" xmlns="http://www.w3.org/2000/svg">
<g clip-path="url(#clip0_201_485)">
<path d="M8.61761 6.48016C9.18691 6.48016 9.70594 6.53054 10.1748 6.63147C10.6436 6.73231 11.0455 6.89773 11.3803 7.12717C11.7151 7.3569 11.9747 7.66228 12.1589 8.04331C12.3431 8.42434 12.4351 8.89486 12.4351 9.45505C12.4351 10.0602 12.2984 10.5644 12.0249 10.9676C11.7513 11.371 11.3468 11.7015 10.8111 11.9592C11.5477 12.1722 12.0975 12.5449 12.4603 13.0768C12.8228 13.6092 13.0046 14.2508 13.0046 15.0013C13.0046 15.6063 12.8875 16.1302 12.6529 16.5729C12.4186 17.0157 12.1031 17.3769 11.707 17.6567C11.3107 17.937 10.8586 18.1441 10.3508 18.2788C9.8398 18.4135 9.31359 18.4812 8.78527 18.4803H2.99182V6.48016H8.61761ZM8.28278 11.3375C8.75162 11.3375 9.13664 11.2255 9.43811 11.0013C9.73948 10.7773 9.89013 10.4131 9.89013 9.90887C9.89013 9.62887 9.83994 9.39905 9.73948 9.21979C9.63903 9.04063 9.50511 8.90029 9.33765 8.79965C9.17019 8.69871 8.97763 8.62897 8.75999 8.58948C8.53612 8.54979 8.30919 8.53013 8.08187 8.53071H5.62057V11.3376L8.28278 11.3375ZM8.43342 16.4298C8.69004 16.4298 8.93572 16.4045 9.17009 16.3542C9.40446 16.3037 9.61089 16.2196 9.78967 16.1019C9.96806 15.9845 10.1104 15.8247 10.2166 15.6229C10.3226 15.4213 10.3756 15.1636 10.3756 14.8498C10.3756 14.2338 10.2024 13.794 9.85658 13.5306C9.51043 13.2673 9.05281 13.1355 8.48361 13.1355H5.62057V16.4296L8.43342 16.4298ZM16.3127 16.1778C16.6699 16.5254 17.1834 16.6987 17.8532 16.6987C18.3329 16.6987 18.7461 16.5785 19.092 16.3375C19.4381 16.0969 19.6502 15.8418 19.7283 15.5727H21.8213C21.4865 16.6147 20.9728 17.36 20.2809 17.808C19.5886 18.2563 18.7514 18.4803 17.7693 18.4803C17.0884 18.4803 16.4743 18.371 15.9274 18.1525C15.3804 17.9341 14.9171 17.6231 14.5378 17.2197C14.1583 16.8165 13.8652 16.335 13.6587 15.7745C13.4521 15.2144 13.3491 14.598 13.3491 13.9257C13.3491 13.276 13.4548 12.671 13.6672 12.1107C13.879 11.5506 14.1803 11.066 14.5714 10.6568C14.9618 10.248 15.428 9.92585 15.9695 9.6905C16.5107 9.45514 17.1107 9.33761 17.7694 9.33761C18.5061 9.33761 19.1478 9.48043 19.695 9.76615C20.2418 10.0518 20.6911 10.436 21.0429 10.9174C21.3944 11.3992 21.6482 11.9484 21.8048 12.5644C21.9611 13.1807 22.0167 13.8249 21.9723 14.4972H15.7269C15.7603 15.2701 15.9553 15.8306 16.3127 16.1778ZM19 11.6063C18.7155 11.2928 18.2828 11.1357 17.7025 11.1357C17.3229 11.1357 17.0077 11.2003 16.7566 11.329C16.5054 11.4581 16.3044 11.6174 16.1536 11.808C16.0031 11.9986 15.8968 12.2004 15.8356 12.413C15.7741 12.626 15.7378 12.8165 15.7267 12.9845H19.5944C19.4829 12.3794 19.2848 11.9201 19 11.6063ZM15.3207 7.08949H20.1532V8.43445H15.3207V7.08949Z" fill="white"/>
<path d="M8.61761 6.48016C9.18691 6.48016 9.70594 6.53054 10.1748 6.63147C10.6436 6.73231 11.0455 6.89773 11.3803 7.12717C11.7151 7.3569 11.9747 7.66228 12.1589 8.04331C12.3431 8.42434 12.4351 8.89486 12.4351 9.45505C12.4351 10.0602 12.2984 10.5644 12.0249 10.9676C11.7513 11.371 11.3468 11.7015 10.8111 11.9592C11.5477 12.1722 12.0975 12.5449 12.4603 13.0768C12.8228 13.6092 13.0046 14.2508 13.0046 15.0013C13.0046 15.6063 12.8875 16.1302 12.6529 16.5729C12.4186 17.0157 12.1031 17.3769 11.707 17.6567C11.3107 17.937 10.8586 18.1441 10.3508 18.2788C9.8398 18.4135 9.31359 18.4812 8.78527 18.4803H2.99182V6.48016H8.61761ZM8.28278 11.3375C8.75162 11.3375 9.13664 11.2255 9.43811 11.0013C9.73948 10.7773 9.89013 10.4131 9.89013 9.90887C9.89013 9.62887 9.83994 9.39905 9.73948 9.21979C9.63903 9.04063 9.50511 8.90029 9.33765 8.79965C9.17019 8.69871 8.97763 8.62897 8.75999 8.58948C8.53612 8.54979 8.30919 8.53013 8.08187 8.53071H5.62057V11.3376L8.28278 11.3375ZM8.43342 16.4298C8.69004 16.4298 8.93572 16.4045 9.17009 16.3542C9.40446 16.3037 9.61089 16.2196 9.78967 16.1019C9.96806 15.9845 10.1104 15.8247 10.2166 15.6229C10.3226 15.4213 10.3756 15.1636 10.3756 14.8498C10.3756 14.2338 10.2024 13.794 9.85658 13.5306C9.51043 13.2673 9.05281 13.1355 8.48361 13.1355H5.62057V16.4296L8.43342 16.4298ZM16.3127 16.1778C16.6699 16.5254 17.1834 16.6987 17.8532 16.6987C18.3329 16.6987 18.7461 16.5785 19.092 16.3375C19.4381 16.0969 19.6502 15.8418 19.7283 15.5727H21.8213C21.4865 16.6147 20.9728 17.36 20.2809 17.808C19.5886 18.2563 18.7514 18.4803 17.7693 18.4803C17.0884 18.4803 16.4743 18.371 15.9274 18.1525C15.3804 17.9341 14.9171 17.6231 14.5378 17.2197C14.1583 16.8165 13.8652 16.335 13.6587 15.7745C13.4521 15.2144 13.3491 14.598 13.3491 13.9257C13.3491 13.276 13.4548 12.671 13.6672 12.1107C13.879 11.5506 14.1803 11.066 14.5714 10.6568C14.9618 10.248 15.428 9.92585 15.9695 9.6905C16.5107 9.45514 17.1107 9.33761 17.7694 9.33761C18.5061 9.33761 19.1478 9.48043 19.695 9.76615C20.2418 10.0518 20.6911 10.436 21.0429 10.9174C21.3944 11.3992 21.6482 11.9484 21.8048 12.5644C21.9611 13.1807 22.0167 13.8249 21.9723 14.4972H15.7269C15.7603 15.2701 15.9553 15.8306 16.3127 16.1778ZM19 11.6063C18.7155 11.2928 18.2828 11.1357 17.7025 11.1357C17.3229 11.1357 17.0077 11.2003 16.7566 11.329C16.5054 11.4581 16.3044 11.6174 16.1536 11.808C16.0031 11.9986 15.8968 12.2004 15.8356 12.413C15.7741 12.626 15.7378 12.8165 15.7267 12.9845H19.5944C19.4829 12.3794 19.2848 11.9201 19 11.6063ZM15.3207 7.08949H20.1532V8.43445H15.3207V7.08949Z" fill="url(#paint0_linear_201_485)"/>
</g>
<defs>
<linearGradient id="paint0_linear_201_485" x1="1.35482" y1="12.4802" x2="23.123" y2="13.1457" gradientUnits="userSpaceOnUse">
<stop stop-color="#FB5F9E"/>
<stop offset="0.505208" stop-color="#4F7DDC"/>
<stop offset="1" stop-color="#A6E6FF"/>
</linearGradient>
<clipPath id="clip0_201_485">
<rect width="19" height="12" fill="white" transform="translate(2.98926 6.48016)"/>
</clipPath>
</defs>
</svg>
