<svg width="25" height="24" viewBox="0 0 25 24" fill="none" xmlns="http://www.w3.org/2000/svg">
<g id="basic / mail">
<path id="Vector" d="M22.225 6.00502C22.225 5.05502 21.455 4.27502 20.505 4.27502H4.50502C3.57502 4.27502 2.81502 4.99502 2.77502 5.92502V18.005C2.77502 18.955 3.54502 19.725 4.50502 19.725H20.505C21.455 19.725 22.225 18.955 22.225 18.005V6.00502ZM5.30502 5.72502H19.705C19.825 5.72502 19.935 5.80502 19.965 5.91502C20.005 6.03502 19.965 6.15502 19.855 6.22502L12.655 11.025C12.655 11.025 12.555 11.075 12.505 11.075C12.455 11.075 12.395 11.055 12.355 11.025L5.14502 6.22502C5.04502 6.15502 4.99502 6.03502 5.03502 5.91502C5.07502 5.79502 5.17502 5.72502 5.29502 5.72502H5.30502ZM20.785 18.005C20.785 18.155 20.665 18.285 20.505 18.285H4.50502C4.35502 18.285 4.22502 18.165 4.22502 18.005V7.86502C4.22502 7.76502 4.28502 7.67502 4.37502 7.62502C4.46502 7.57502 4.57502 7.57502 4.65502 7.63502L12.505 12.865L20.355 7.63502C20.445 7.57502 20.555 7.57502 20.635 7.62502C20.725 7.67502 20.785 7.76502 20.785 7.86502V18.005Z" fill="url(#paint0_linear_75_594)"/>
</g>
<defs>
<linearGradient id="paint0_linear_75_594" x1="1.09883" y1="12" x2="23.3959" y2="12.5422" gradientUnits="userSpaceOnUse">
<stop stop-color="#FB5F9E"/>
<stop offset="0.505208" stop-color="#4F7DDC"/>
<stop offset="1" stop-color="#A6E6FF"/>
</linearGradient>
</defs>
</svg>
