<svg width="24" height="25" viewBox="0 0 24 25" fill="none" xmlns="http://www.w3.org/2000/svg">
<path d="M6.5516 9.38024C7.53345 9.38024 8.3294 8.58429 8.3294 7.60244C8.3294 6.62059 7.53345 5.82465 6.5516 5.82465C5.56975 5.82465 4.7738 6.62059 4.7738 7.60244C4.7738 8.58429 5.56975 9.38024 6.5516 9.38024Z" fill="white"/>
<path d="M9.95756 10.6941H12.9039V12.0439C12.9039 12.0439 13.7035 10.4448 15.8789 10.4448C17.8195 10.4448 19.4271 11.4008 19.4271 14.3146V20.4592H16.3738V15.0592C16.3738 13.3403 15.4561 13.1512 14.7568 13.1512C13.3055 13.1512 13.0571 14.403 13.0571 15.2834V20.4592H9.95756V10.6941Z" fill="white"/>
<path d="M5.00185 10.6941H8.10135V20.4592H5.00185V10.6941Z" fill="white"/>
</svg>
