<svg width="25" height="25" viewBox="0 0 25 25" fill="none" xmlns="http://www.w3.org/2000/svg">
<g clip-path="url(#clip0_201_484)">
<path d="M8.61761 6.51984C9.18691 6.51984 9.70594 6.57021 10.1748 6.67114C10.6436 6.77198 11.0455 6.93741 11.3803 7.16685C11.7151 7.39657 11.9747 7.70195 12.1589 8.08298C12.3431 8.46401 12.4351 8.93453 12.4351 9.49472C12.4351 10.0999 12.2984 10.604 12.0249 11.0073C11.7513 11.4107 11.3468 11.7411 10.8111 11.9989C11.5477 12.2118 12.0975 12.5846 12.4603 13.1165C12.8228 13.6489 13.0046 14.2904 13.0046 15.0409C13.0046 15.646 12.8875 16.1699 12.6529 16.6126C12.4186 17.0553 12.1031 17.4166 11.707 17.6963C11.3107 17.9766 10.8586 18.1837 10.3508 18.3184C9.8398 18.4532 9.31359 18.5209 8.78527 18.5199H2.99182V6.51984H8.61761ZM8.28278 11.3772C8.75162 11.3772 9.13664 11.2652 9.43811 11.041C9.73948 10.817 9.89013 10.4527 9.89013 9.94854C9.89013 9.66854 9.83994 9.43872 9.73948 9.25946C9.63903 9.0803 9.50511 8.93997 9.33765 8.83932C9.17019 8.73838 8.97763 8.66865 8.75999 8.62915C8.53612 8.58947 8.30919 8.5698 8.08187 8.57038H5.62057V11.3773L8.28278 11.3772ZM8.43342 16.4695C8.69004 16.4695 8.93572 16.4442 9.17009 16.3938C9.40446 16.3434 9.61089 16.2593 9.78967 16.1416C9.96806 16.0241 10.1104 15.8644 10.2166 15.6626C10.3226 15.461 10.3756 15.2033 10.3756 14.8895C10.3756 14.2734 10.2024 13.8336 9.85658 13.5702C9.51043 13.3069 9.05281 13.1752 8.48361 13.1752H5.62057V16.4693L8.43342 16.4695ZM16.3127 16.2174C16.6699 16.5651 17.1834 16.7384 17.8532 16.7384C18.3329 16.7384 18.7461 16.6182 19.092 16.3771C19.4381 16.1365 19.6502 15.8814 19.7283 15.6124H21.8213C21.4865 16.6544 20.9728 17.3996 20.2809 17.8476C19.5886 18.2959 18.7514 18.5199 17.7693 18.5199C17.0884 18.5199 16.4743 18.4107 15.9274 18.1921C15.3804 17.9738 14.9171 17.6628 14.5378 17.2594C14.1583 16.8561 13.8652 16.3747 13.6587 15.8142C13.4521 15.2541 13.3491 14.6377 13.3491 13.9654C13.3491 13.3157 13.4548 12.7107 13.6672 12.1504C13.879 11.5903 14.1803 11.1057 14.5714 10.6965C14.9618 10.2877 15.428 9.96553 15.9695 9.73017C16.5107 9.49482 17.1107 9.37728 17.7694 9.37728C18.5061 9.37728 19.1478 9.5201 19.695 9.80582C20.2418 10.0915 20.6911 10.4756 21.0429 10.957C21.3944 11.4389 21.6482 11.988 21.8048 12.604C21.9611 13.2204 22.0167 13.8646 21.9723 14.5369H15.7269C15.7603 15.3098 15.9553 15.8703 16.3127 16.2174ZM19 11.646C18.7155 11.3324 18.2828 11.1754 17.7025 11.1754C17.3229 11.1754 17.0077 11.24 16.7566 11.3687C16.5054 11.4978 16.3044 11.6571 16.1536 11.8477C16.0031 12.0383 15.8968 12.2401 15.8356 12.4527C15.7741 12.6657 15.7378 12.8562 15.7267 13.0242H19.5944C19.4829 12.419 19.2848 11.9598 19 11.646ZM15.3207 7.12916H20.1532V8.47412H15.3207V7.12916Z" fill="white"/>
</g>
<defs>
<clipPath id="clip0_201_484">
<rect width="19" height="12" fill="white" transform="translate(2.98926 6.51984)"/>
</clipPath>
</defs>
</svg>
