<svg width="24" height="24" viewBox="0 0 24 24" fill="none" xmlns="http://www.w3.org/2000/svg">
<path d="M12.0008 3.27277C9.5803 3.27277 9.27652 3.28313 8.32584 3.32549C7.37701 3.36804 6.72935 3.51513 6.16265 3.73095C5.57646 3.95386 5.0792 4.25204 4.58381 4.73731C4.08804 5.2224 3.78352 5.70931 3.55513 6.28313C3.33417 6.83822 3.18377 7.47258 3.14106 8.40131C3.09854 9.33222 3.0874 9.62986 3.0874 12C3.0874 14.3702 3.09817 14.6668 3.14125 15.5977C3.18489 16.5268 3.3351 17.1609 3.55532 17.7159C3.78315 18.2899 4.08767 18.7768 4.58325 19.2619C5.07846 19.7473 5.57571 20.0462 6.16154 20.2691C6.72861 20.4849 7.37645 20.632 8.32509 20.6746C9.27578 20.7169 9.57937 20.7273 11.9997 20.7273C14.4204 20.7273 14.7233 20.7169 15.674 20.6746C16.6228 20.632 17.2712 20.4849 17.8383 20.2691C18.4243 20.0462 18.9208 19.7473 19.416 19.2619C19.9118 18.7768 20.2163 18.2899 20.4447 17.716C20.6638 17.1609 20.8142 16.5266 20.8587 15.5979C20.9015 14.6669 20.9126 14.3702 20.9126 12C20.9126 9.62986 20.9015 9.3324 20.8587 8.40149C20.8142 7.4724 20.6638 6.83822 20.4447 6.28331C20.2163 5.70931 19.9118 5.2224 19.416 4.73731C18.9202 4.25186 18.4245 3.95368 17.8377 3.73095C17.2695 3.51513 16.6215 3.36804 15.6727 3.32549C14.722 3.28313 14.4193 3.27277 11.998 3.27277H12.0008ZM11.2013 4.84549C11.4386 4.84513 11.7034 4.84549 12.0008 4.84549C14.3805 4.84549 14.6626 4.85386 15.6023 4.89568C16.4713 4.93458 16.9429 5.07677 17.2571 5.19622C17.673 5.3544 17.9696 5.54349 18.2813 5.84895C18.5933 6.1544 18.7864 6.44531 18.9483 6.85258C19.0703 7.15986 19.2157 7.62167 19.2552 8.47258C19.2979 9.39258 19.3072 9.66895 19.3072 11.998C19.3072 14.3271 19.2979 14.6035 19.2552 15.5235C19.2155 16.3744 19.0703 16.8362 18.9483 17.1435C18.7867 17.5508 18.5933 17.8408 18.2813 18.146C17.9694 18.4515 17.6732 18.6406 17.2571 18.7988C16.9433 18.9188 16.4713 19.0606 15.6023 19.0995C14.6628 19.1413 14.3805 19.1504 12.0008 19.1504C9.62096 19.1504 9.33891 19.1413 8.39937 19.0995C7.53038 19.0602 7.05875 18.918 6.74439 18.7986C6.32846 18.6404 6.03138 18.4513 5.71943 18.1459C5.40749 17.8404 5.21438 17.5502 5.05246 17.1428C4.93047 16.8355 4.78508 16.3737 4.74553 15.5228C4.70283 14.6028 4.69429 14.3264 4.69429 11.9959C4.69429 9.66531 4.70283 9.3904 4.74553 8.4704C4.78527 7.61949 4.93047 7.15767 5.05246 6.85004C5.21401 6.44277 5.40749 6.15186 5.71943 5.8464C6.03138 5.54095 6.32846 5.35186 6.74439 5.19331C7.05856 5.07331 7.53038 4.93149 8.39937 4.8924C9.22156 4.85604 9.54019 4.84513 11.2013 4.84331V4.84549ZM16.7584 6.29458C16.1679 6.29458 15.6888 6.76313 15.6888 7.34149C15.6888 7.91967 16.1679 8.38877 16.7584 8.38877C17.3488 8.38877 17.8279 7.91967 17.8279 7.34149C17.8279 6.76331 17.3488 6.29422 16.7584 6.29422V6.29458ZM12.0008 7.51822C9.47316 7.51822 7.4238 9.52495 7.4238 12C7.4238 14.4751 9.47316 16.4809 12.0008 16.4809C14.5285 16.4809 16.5771 14.4751 16.5771 12C16.5771 9.52495 14.5283 7.51822 12.0006 7.51822H12.0008ZM12.0008 9.09095C13.6415 9.09095 14.9717 10.3933 14.9717 12C14.9717 13.6066 13.6415 14.9091 12.0008 14.9091C10.36 14.9091 9.02994 13.6066 9.02994 12C9.02994 10.3933 10.36 9.09095 12.0008 9.09095V9.09095Z" fill="white"/>
</svg>
