<svg width="25" height="24" viewBox="0 0 25 24" fill="none" xmlns="http://www.w3.org/2000/svg">
<g id="Social media logo">
<path id="Vector" fill-rule="evenodd" clip-rule="evenodd" d="M13.197 3.29632C15.3213 3.40073 17.3008 4.27675 18.8127 5.78968C20.4254 7.4034 21.3131 9.54847 21.3123 11.8297C21.3103 16.5371 17.4781 20.3673 12.7704 20.3673C11 20.3673 9.59322 19.8233 8.68484 19.3281L4.15662 20.5153L5.36847 16.0911C4.62096 14.7964 4.22762 13.3277 4.22824 11.8229C4.23013 7.11557 8.06204 3.28577 12.7702 3.28577L13.197 3.29632ZM8.89462 17.7825L9.15391 17.9362C10.244 18.5828 11.4935 18.9249 12.7675 18.9254H12.7703C16.6835 18.9254 19.8684 15.742 19.87 11.8292C19.8707 9.93307 19.133 8.15018 17.7925 6.80889C16.452 5.46751 14.6695 4.72838 12.7732 4.72777C8.85697 4.72777 5.67202 7.91085 5.67046 11.8234C5.66993 13.1642 6.04526 14.4701 6.75596 15.5999L6.92477 15.8684L6.20754 18.487L8.89462 17.7825ZM17.0737 13.8599C17.0204 13.7708 16.8781 13.7175 16.6647 13.6107C16.4512 13.5039 15.4019 12.9878 15.2062 12.9166C15.0106 12.8455 14.8683 12.8099 14.726 13.0234C14.5838 13.2369 14.1747 13.7175 14.0502 13.8599C13.9257 14.0022 13.8012 14.0201 13.5878 13.9133C13.3744 13.8065 12.6867 13.5812 11.8714 12.8544C11.2369 12.2888 10.8086 11.5902 10.6841 11.3766C10.5596 11.1631 10.6708 11.0476 10.7776 10.9413C10.8737 10.8457 10.9911 10.6921 11.0978 10.5675C11.2045 10.443 11.2401 10.3539 11.3113 10.2116C11.3824 10.0692 11.3468 9.94469 11.2935 9.83791C11.2401 9.73108 10.8133 8.68103 10.6354 8.25388C10.4621 7.83794 10.2862 7.89426 10.1552 7.88768C10.0308 7.88152 9.88839 7.88017 9.74613 7.88017C9.60383 7.88017 9.3726 7.93352 9.17696 8.14714C8.98132 8.36067 8.42994 8.87682 8.42994 9.92679C8.42994 10.9769 9.19475 11.9912 9.30147 12.1336C9.40819 12.276 10.8065 14.4307 12.9475 15.3548C13.4567 15.5746 13.8543 15.7058 14.1643 15.8042C14.6756 15.9665 15.1408 15.9436 15.5086 15.8887C15.9187 15.8274 16.7714 15.3726 16.9492 14.8744C17.1271 14.376 17.1271 13.9488 17.0737 13.8599Z" fill="url(#paint0_linear_75_596)"/>
</g>
<defs>
<linearGradient id="paint0_linear_75_596" x1="2.67815" y1="11.9005" x2="22.3493" y2="12.2788" gradientUnits="userSpaceOnUse">
<stop stop-color="#FB5F9E"/>
<stop offset="0.505208" stop-color="#4F7DDC"/>
<stop offset="1" stop-color="#A6E6FF"/>
</linearGradient>
</defs>
</svg>
