<svg width="24" height="25" viewBox="0 0 24 25" fill="none" xmlns="http://www.w3.org/2000/svg">
<g clip-path="url(#clip0_201_479)">
<path fill-rule="evenodd" clip-rule="evenodd" d="M11.9732 4.21036C7.01125 4.21036 3 8.22077 3 13.1822C3 17.1481 5.57014 20.5052 9.13561 21.6934C9.58139 21.7827 9.74467 21.5004 9.74467 21.2628C9.74467 21.0548 9.72998 20.3419 9.72998 19.5991C7.23386 20.1339 6.71406 18.5296 6.71406 18.5296C6.31292 17.4898 5.71855 17.2225 5.71855 17.2225C4.90157 16.6729 5.77806 16.6729 5.77806 16.6729C6.68431 16.7323 7.15984 17.5938 7.15984 17.5938C7.96194 18.9603 9.25445 18.5742 9.77443 18.3365C9.84863 17.7572 10.0865 17.3561 10.339 17.1334C8.3482 16.9254 6.25359 16.153 6.25359 12.7068C6.25359 11.7264 6.60992 10.9243 7.17453 10.3005C7.08545 10.0778 6.77339 9.15666 7.2638 7.92382C7.2638 7.92382 8.02145 7.68611 9.7298 8.84476C10.4612 8.64837 11.2155 8.54846 11.9732 8.54762C12.7308 8.54762 13.5032 8.65171 14.2164 8.84476C15.9249 7.68611 16.6826 7.92382 16.6826 7.92382C17.173 9.15666 16.8607 10.0778 16.7717 10.3005C17.3511 10.9243 17.6928 11.7264 17.6928 12.7068C17.6928 16.153 15.5982 16.9104 13.5924 17.1334C13.9194 17.4156 14.2015 17.9502 14.2015 18.797C14.2015 20.0001 14.1868 20.9657 14.1868 21.2626C14.1868 21.5004 14.3503 21.7827 14.7959 21.6936C18.3613 20.505 20.9315 17.1481 20.9315 13.1822C20.9462 8.22077 16.9202 4.21036 11.9732 4.21036Z" fill="white"/>
<path fill-rule="evenodd" clip-rule="evenodd" d="M11.9732 4.21036C7.01125 4.21036 3 8.22077 3 13.1822C3 17.1481 5.57014 20.5052 9.13561 21.6934C9.58139 21.7827 9.74467 21.5004 9.74467 21.2628C9.74467 21.0548 9.72998 20.3419 9.72998 19.5991C7.23386 20.1339 6.71406 18.5296 6.71406 18.5296C6.31292 17.4898 5.71855 17.2225 5.71855 17.2225C4.90157 16.6729 5.77806 16.6729 5.77806 16.6729C6.68431 16.7323 7.15984 17.5938 7.15984 17.5938C7.96194 18.9603 9.25445 18.5742 9.77443 18.3365C9.84863 17.7572 10.0865 17.3561 10.339 17.1334C8.3482 16.9254 6.25359 16.153 6.25359 12.7068C6.25359 11.7264 6.60992 10.9243 7.17453 10.3005C7.08545 10.0778 6.77339 9.15666 7.2638 7.92382C7.2638 7.92382 8.02145 7.68611 9.7298 8.84476C10.4612 8.64837 11.2155 8.54846 11.9732 8.54762C12.7308 8.54762 13.5032 8.65171 14.2164 8.84476C15.9249 7.68611 16.6826 7.92382 16.6826 7.92382C17.173 9.15666 16.8607 10.0778 16.7717 10.3005C17.3511 10.9243 17.6928 11.7264 17.6928 12.7068C17.6928 16.153 15.5982 16.9104 13.5924 17.1334C13.9194 17.4156 14.2015 17.9502 14.2015 18.797C14.2015 20.0001 14.1868 20.9657 14.1868 21.2626C14.1868 21.5004 14.3503 21.7827 14.7959 21.6936C18.3613 20.505 20.9315 17.1481 20.9315 13.1822C20.9462 8.22077 16.9202 4.21036 11.9732 4.21036Z" fill="url(#paint0_linear_201_479)"/>
</g>
<defs>
<linearGradient id="paint0_linear_201_479" x1="1.45467" y1="12.9604" x2="22.0151" y2="13.3673" gradientUnits="userSpaceOnUse">
<stop stop-color="#FB5F9E"/>
<stop offset="0.505208" stop-color="#4F7DDC"/>
<stop offset="1" stop-color="#A6E6FF"/>
</linearGradient>
<clipPath id="clip0_201_479">
<rect width="18" height="17.5" fill="white" transform="translate(3 4.21036)"/>
</clipPath>
</defs>
</svg>
