<svg width="24" height="24" viewBox="0 0 24 24" fill="none" xmlns="http://www.w3.org/2000/svg">
<g id="edit / off_close">
<path id="icon" d="M12 22C9.34711 22.0024 6.80218 20.9496 4.9263 19.0737C3.05042 17.1978 1.99762 14.6529 2 12V11.8C2.08179 7.79221 4.5478 4.22015 8.26637 2.72305C11.9849 1.22596 16.2381 2.09289 19.074 4.92599C21.9365 7.78607 22.7932 12.0893 21.2443 15.8276C19.6955 19.5659 16.0465 22.0024 12 22ZM12 13.41L14.59 16L16 14.59L13.41 12L16 9.40999L14.59 7.99999L12 10.59L9.41001 7.99999L8.00001 9.40999L10.59 12L8.00001 14.59L9.41001 16L12 13.411V13.41Z" fill="white"/>
</g>
</svg>
