<svg width="24" height="25" viewBox="0 0 24 25" fill="none" xmlns="http://www.w3.org/2000/svg">
<path d="M12.0008 4.23309C9.5803 4.23309 9.27652 4.24346 8.32584 4.28582C7.37701 4.32837 6.72935 4.47546 6.16265 4.69128C5.57646 4.91418 5.0792 5.21237 4.58381 5.69764C4.08804 6.18273 3.78352 6.66964 3.55513 7.24346C3.33417 7.79855 3.18377 8.43291 3.14106 9.36164C3.09854 10.2925 3.0874 10.5902 3.0874 12.9604C3.0874 15.3305 3.09817 15.6271 3.14125 16.558C3.18489 17.4871 3.3351 18.1213 3.55532 18.6762C3.78315 19.2502 4.08767 19.7371 4.58325 20.2222C5.07846 20.7076 5.57571 21.0065 6.16154 21.2295C6.72861 21.4453 7.37645 21.5924 8.32509 21.6349C9.27578 21.6773 9.57937 21.6876 11.9997 21.6876C14.4204 21.6876 14.7233 21.6773 15.674 21.6349C16.6228 21.5924 17.2712 21.4453 17.8383 21.2295C18.4243 21.0065 18.9208 20.7076 19.416 20.2222C19.9118 19.7371 20.2163 19.2502 20.4447 18.6764C20.6638 18.1213 20.8142 17.4869 20.8587 16.5582C20.9015 15.6273 20.9126 15.3305 20.9126 12.9604C20.9126 10.5902 20.9015 10.2927 20.8587 9.36182C20.8142 8.43273 20.6638 7.79855 20.4447 7.24364C20.2163 6.66964 19.9118 6.18273 19.416 5.69764C18.9202 5.21218 18.4245 4.914 17.8377 4.69128C17.2695 4.47546 16.6215 4.32837 15.6727 4.28582C14.722 4.24346 14.4193 4.23309 11.998 4.23309H12.0008ZM11.2013 5.80582C11.4386 5.80546 11.7034 5.80582 12.0008 5.80582C14.3805 5.80582 14.6626 5.81418 15.6023 5.856C16.4713 5.89491 16.9429 6.03709 17.2571 6.15655C17.673 6.31473 17.9696 6.50382 18.2813 6.80927C18.5933 7.11473 18.7864 7.40564 18.9483 7.81291C19.0703 8.12018 19.2157 8.582 19.2552 9.43291C19.2979 10.3529 19.3072 10.6293 19.3072 12.9584C19.3072 15.2875 19.2979 15.5638 19.2552 16.4838C19.2155 17.3347 19.0703 17.7965 18.9483 18.1038C18.7867 18.5111 18.5933 18.8011 18.2813 19.1064C17.9694 19.4118 17.6732 19.6009 17.2571 19.7591C16.9433 19.8791 16.4713 20.0209 15.6023 20.0598C14.6628 20.1016 14.3805 20.1107 12.0008 20.1107C9.62096 20.1107 9.33891 20.1016 8.39937 20.0598C7.53038 20.0205 7.05875 19.8784 6.74439 19.7589C6.32846 19.6007 6.03138 19.4116 5.71943 19.1062C5.40749 18.8007 5.21438 18.5105 5.05246 18.1031C4.93047 17.7958 4.78508 17.334 4.74553 16.4831C4.70283 15.5631 4.69429 15.2867 4.69429 12.9562C4.69429 10.6256 4.70283 10.3507 4.74553 9.43073C4.78527 8.57982 4.93047 8.118 5.05246 7.81037C5.21401 7.40309 5.40749 7.11218 5.71943 6.80673C6.03138 6.50127 6.32846 6.31218 6.74439 6.15364C7.05856 6.03364 7.53038 5.89182 8.39937 5.85273C9.22156 5.81637 9.54019 5.80546 11.2013 5.80364V5.80582ZM16.7584 7.25491C16.1679 7.25491 15.6888 7.72346 15.6888 8.30182C15.6888 8.88 16.1679 9.34909 16.7584 9.34909C17.3488 9.34909 17.8279 8.88 17.8279 8.30182C17.8279 7.72364 17.3488 7.25455 16.7584 7.25455V7.25491ZM12.0008 8.47855C9.47316 8.47855 7.4238 10.4853 7.4238 12.9604C7.4238 15.4355 9.47316 17.4413 12.0008 17.4413C14.5285 17.4413 16.5771 15.4355 16.5771 12.9604C16.5771 10.4853 14.5283 8.47855 12.0006 8.47855H12.0008ZM12.0008 10.0513C13.6415 10.0513 14.9717 11.3536 14.9717 12.9604C14.9717 14.5669 13.6415 15.8695 12.0008 15.8695C10.36 15.8695 9.02994 14.5669 9.02994 12.9604C9.02994 11.3536 10.36 10.0513 12.0008 10.0513V10.0513Z" fill="white"/>
<path d="M12.0008 4.23309C9.5803 4.23309 9.27652 4.24346 8.32584 4.28582C7.37701 4.32837 6.72935 4.47546 6.16265 4.69128C5.57646 4.91418 5.0792 5.21237 4.58381 5.69764C4.08804 6.18273 3.78352 6.66964 3.55513 7.24346C3.33417 7.79855 3.18377 8.43291 3.14106 9.36164C3.09854 10.2925 3.0874 10.5902 3.0874 12.9604C3.0874 15.3305 3.09817 15.6271 3.14125 16.558C3.18489 17.4871 3.3351 18.1213 3.55532 18.6762C3.78315 19.2502 4.08767 19.7371 4.58325 20.2222C5.07846 20.7076 5.57571 21.0065 6.16154 21.2295C6.72861 21.4453 7.37645 21.5924 8.32509 21.6349C9.27578 21.6773 9.57937 21.6876 11.9997 21.6876C14.4204 21.6876 14.7233 21.6773 15.674 21.6349C16.6228 21.5924 17.2712 21.4453 17.8383 21.2295C18.4243 21.0065 18.9208 20.7076 19.416 20.2222C19.9118 19.7371 20.2163 19.2502 20.4447 18.6764C20.6638 18.1213 20.8142 17.4869 20.8587 16.5582C20.9015 15.6273 20.9126 15.3305 20.9126 12.9604C20.9126 10.5902 20.9015 10.2927 20.8587 9.36182C20.8142 8.43273 20.6638 7.79855 20.4447 7.24364C20.2163 6.66964 19.9118 6.18273 19.416 5.69764C18.9202 5.21218 18.4245 4.914 17.8377 4.69128C17.2695 4.47546 16.6215 4.32837 15.6727 4.28582C14.722 4.24346 14.4193 4.23309 11.998 4.23309H12.0008ZM11.2013 5.80582C11.4386 5.80546 11.7034 5.80582 12.0008 5.80582C14.3805 5.80582 14.6626 5.81418 15.6023 5.856C16.4713 5.89491 16.9429 6.03709 17.2571 6.15655C17.673 6.31473 17.9696 6.50382 18.2813 6.80927C18.5933 7.11473 18.7864 7.40564 18.9483 7.81291C19.0703 8.12018 19.2157 8.582 19.2552 9.43291C19.2979 10.3529 19.3072 10.6293 19.3072 12.9584C19.3072 15.2875 19.2979 15.5638 19.2552 16.4838C19.2155 17.3347 19.0703 17.7965 18.9483 18.1038C18.7867 18.5111 18.5933 18.8011 18.2813 19.1064C17.9694 19.4118 17.6732 19.6009 17.2571 19.7591C16.9433 19.8791 16.4713 20.0209 15.6023 20.0598C14.6628 20.1016 14.3805 20.1107 12.0008 20.1107C9.62096 20.1107 9.33891 20.1016 8.39937 20.0598C7.53038 20.0205 7.05875 19.8784 6.74439 19.7589C6.32846 19.6007 6.03138 19.4116 5.71943 19.1062C5.40749 18.8007 5.21438 18.5105 5.05246 18.1031C4.93047 17.7958 4.78508 17.334 4.74553 16.4831C4.70283 15.5631 4.69429 15.2867 4.69429 12.9562C4.69429 10.6256 4.70283 10.3507 4.74553 9.43073C4.78527 8.57982 4.93047 8.118 5.05246 7.81037C5.21401 7.40309 5.40749 7.11218 5.71943 6.80673C6.03138 6.50127 6.32846 6.31218 6.74439 6.15364C7.05856 6.03364 7.53038 5.89182 8.39937 5.85273C9.22156 5.81637 9.54019 5.80546 11.2013 5.80364V5.80582ZM16.7584 7.25491C16.1679 7.25491 15.6888 7.72346 15.6888 8.30182C15.6888 8.88 16.1679 9.34909 16.7584 9.34909C17.3488 9.34909 17.8279 8.88 17.8279 8.30182C17.8279 7.72364 17.3488 7.25455 16.7584 7.25455V7.25491ZM12.0008 8.47855C9.47316 8.47855 7.4238 10.4853 7.4238 12.9604C7.4238 15.4355 9.47316 17.4413 12.0008 17.4413C14.5285 17.4413 16.5771 15.4355 16.5771 12.9604C16.5771 10.4853 14.5283 8.47855 12.0006 8.47855H12.0008ZM12.0008 10.0513C13.6415 10.0513 14.9717 11.3536 14.9717 12.9604C14.9717 14.5669 13.6415 15.8695 12.0008 15.8695C10.36 15.8695 9.02994 14.5669 9.02994 12.9604C9.02994 11.3536 10.36 10.0513 12.0008 10.0513V10.0513Z" fill="url(#paint0_linear_201_491)"/>
<defs>
<linearGradient id="paint0_linear_201_491" x1="1.55123" y1="12.9604" x2="21.9897" y2="13.3635" gradientUnits="userSpaceOnUse">
<stop stop-color="#FB5F9E"/>
<stop offset="0.505208" stop-color="#4F7DDC"/>
<stop offset="1" stop-color="#A6E6FF"/>
</linearGradient>
</defs>
</svg>
