<svg width="194" height="41" viewBox="0 0 194 41" fill="none" xmlns="http://www.w3.org/2000/svg">
<path d="M32.4534 2.63647H2.68542V32.3138H32.4534V2.63647Z" fill="#1162FF"/>
<path d="M32.6707 32.6804H32.8207V32.5304V2.41986V2.26986H32.6707H2.46814H2.31814V2.41986V32.5304V32.6804H2.46814H32.6707ZM32.0861 31.9472H3.05271V3.00311H32.0861V31.9472Z" fill="#8AABFF" stroke="#8AABFF" stroke-width="0.3"/>
<path d="M15.3685 12.0194C15.3685 13.2421 15.346 14.4275 15.3965 15.6111C15.4021 15.7621 15.7947 16.0137 16.0116 16.0175C17.7429 16.0529 19.4741 16.0417 21.2054 16.0436C22.1963 16.0436 22.4767 16.2915 22.5066 17.188C22.5403 18.1777 22.0916 18.7667 21.1942 18.791C19.7938 18.8301 18.3935 18.8208 16.9932 18.8208C15.3797 18.8208 15.3816 18.8152 15.3834 20.3939C15.3834 21.1041 15.4003 21.8161 15.3591 22.5263C15.3273 23.0649 15.5311 23.2234 16.0602 23.2178C18.0458 23.1954 20.0331 23.2047 22.0187 23.2234C23.3629 23.2345 23.8079 23.9056 23.3592 25.1767C23.1797 25.6837 22.8637 25.9708 22.2879 25.9689C19.3601 25.9596 16.4323 25.9726 13.5026 25.9596C12.637 25.9559 12.1378 25.5309 11.9639 24.6753C11.8779 24.256 11.8274 23.8217 11.8256 23.3948C11.8162 19.3595 11.8162 15.3222 11.82 11.2868C11.82 9.68015 12.3098 9.19366 13.9121 9.19366C16.5856 9.19366 19.2591 9.19553 21.9327 9.21044C23.0507 9.21603 23.305 9.46207 23.3087 10.4574C23.3124 11.4434 22.8581 11.9429 21.899 11.9485C19.9135 11.9616 17.9261 11.9523 15.9406 11.956C15.7704 11.956 15.5984 11.9914 15.361 12.0175L15.3685 12.0194Z" fill="white"/>
<path d="M34.9532 0.469513H29.9532V5.46951H34.9532V0.469513Z" fill="white"/>
<path d="M34.9609 5.56951H35.0609V5.46951V0.469513V0.369513H34.9609H29.9457H29.8457V0.469513V5.46951V5.56951H29.9457H34.9609ZM34.0251 4.53618H30.8816V1.40285H34.0251V4.53618Z" fill="#8AABFF" stroke="#8AABFF" stroke-width="0.2"/>
<path d="M5.39221 0.469513H0.392212V5.46951H5.39221V0.469513Z" fill="white"/>
<path d="M5.39991 5.56951H5.49991V5.46951V0.469513V0.369513H5.39991H0.384644H0.284644V0.469513V5.46951V5.56951H0.384644H5.39991ZM4.46403 4.53618H1.32052V1.40285H4.46403V4.53618Z" fill="#8AABFF" stroke="#8AABFF" stroke-width="0.2"/>
<path d="M34.9532 29.4695H29.9532V34.4695H34.9532V29.4695Z" fill="white"/>
<path d="M34.9609 34.5695H35.0609V34.4695V29.4695V29.3695H34.9609H29.9457H29.8457V29.4695V34.4695V34.5695H29.9457H34.9609ZM34.0251 33.5362H30.8816V30.4028H34.0251V33.5362Z" fill="#8AABFF" stroke="#8AABFF" stroke-width="0.2"/>
<path d="M5.39221 29.4695H0.392212V34.4695H5.39221V29.4695Z" fill="white"/>
<path d="M5.39991 34.5695H5.49991V34.4695V29.4695V29.3695H5.39991H0.384644H0.284644V29.4695V34.4695V34.5695H0.384644H5.39991ZM4.46403 33.5362H1.32052V30.4028H4.46403V33.5362Z" fill="#8AABFF" stroke="#8AABFF" stroke-width="0.2"/>
<path d="M32.8314 32.147L39.9062 34.1118C40.2734 34.2136 40.3408 34.701 40.0149 34.8981L37.3401 36.5228C37.2532 36.5748 37.188 36.6571 37.1554 36.7546L36.3188 39.2133C36.195 39.5794 35.6865 39.6119 35.5171 39.2653L32.323 32.7557C32.1578 32.42 32.4686 32.0474 32.8293 32.147H32.8314Z" fill="#333333"/>
<path d="M35.906 39.8745H36.056V39.8601C36.3417 39.8081 36.5713 39.6108 36.6672 39.3312L36.6673 39.3309L37.5032 36.8742C37.5097 36.8572 37.5206 36.8448 37.5323 36.8378L37.5331 36.8373L40.2076 35.2128C40.2077 35.2128 40.2078 35.2127 40.2078 35.2127C40.4849 35.0452 40.6304 34.7396 40.5849 34.42C40.5396 34.1009 40.3167 33.8469 40.0055 33.7594L40.0051 33.7593L32.9314 31.7949C32.9312 31.7948 32.931 31.7947 32.9308 31.7947C32.6227 31.7068 32.3037 31.8095 32.0995 32.0527C31.894 32.2976 31.8537 32.63 31.995 32.9172C31.995 32.9172 31.995 32.9173 31.9951 32.9173L35.1889 39.4263C35.1889 39.4263 35.1889 39.4264 35.1889 39.4264C35.3251 39.7058 35.5993 39.8745 35.906 39.8745ZM32.712 32.4985H32.7313C32.7315 32.4986 32.7318 32.4986 32.732 32.4987L32.732 32.4987L32.7348 32.4995L39.8084 34.464C39.8209 34.4677 39.8286 34.4724 39.8336 34.4763C39.8388 34.4805 39.8431 34.4855 39.8466 34.4911C39.8503 34.497 39.853 34.5033 39.8549 34.5092C39.8559 34.512 39.8565 34.5145 39.8569 34.5165C39.8574 34.5184 39.8575 34.5195 39.8575 34.5194C39.8582 34.5243 39.8591 34.5376 39.8552 34.5509C39.8534 34.5568 39.8509 34.5623 39.8472 34.5673C39.8437 34.5721 39.8375 34.5788 39.8259 34.586C39.8258 34.5861 39.8257 34.5861 39.8256 34.5862L37.1514 36.2105L37.1507 36.2109C36.991 36.3091 36.8707 36.4582 36.8093 36.6364L36.8092 36.637L35.9726 39.0956L35.9726 39.0957C35.9679 39.1095 35.9624 39.1175 35.9582 39.1224C35.9538 39.1274 35.9489 39.1311 35.9436 39.134C35.9381 39.137 35.9324 39.139 35.9273 39.1402C35.9257 39.1406 35.9244 39.1409 35.9234 39.141V39.1409L35.9135 39.1416C35.9098 39.1418 35.8958 39.1418 35.882 39.1366C35.876 39.1343 35.8708 39.1313 35.8662 39.1273C35.8618 39.1235 35.8558 39.1169 35.8499 39.1046L35.8495 39.1039L32.6558 32.5952C32.6558 32.5951 32.6557 32.595 32.6557 32.5949C32.6499 32.5829 32.6483 32.5742 32.6479 32.5682C32.6475 32.5619 32.6483 32.5559 32.6499 32.5499C32.6532 32.5381 32.6596 32.5285 32.6629 32.5242C32.6673 32.5195 32.6741 32.513 32.6828 32.5075C32.6923 32.5016 32.7016 32.4985 32.712 32.4985Z" fill="#8AABFF" stroke="#8AABFF" stroke-width="0.3"/>
<path d="M45.6213 13.892H49.7013V24.356C49.5253 24.404 49.2693 24.452 48.9333 24.5C48.5973 24.548 48.2373 24.572 47.8533 24.572C47.1653 24.572 46.6213 24.372 46.2213 23.972C45.8213 23.572 45.6213 23.028 45.6213 22.34V13.892ZM49.7013 20.636H45.6213V12.188C45.6213 11.5 45.8213 10.956 46.2213 10.556C46.6213 10.156 47.1653 9.956 47.8533 9.956C48.2373 9.956 48.5973 9.98 48.9333 10.028C49.2693 10.076 49.5253 10.124 49.7013 10.172V20.636ZM47.8533 18.74V15.476H55.1013C55.2133 15.652 55.3093 15.876 55.3893 16.148C55.4853 16.42 55.5333 16.724 55.5333 17.06C55.5333 17.652 55.4053 18.084 55.1493 18.356C54.8933 18.612 54.5413 18.74 54.0933 18.74H47.8533ZM47.8533 24.572V21.26H55.8693C55.9813 21.436 56.0773 21.668 56.1573 21.956C56.2533 22.244 56.3013 22.556 56.3013 22.892C56.3013 23.484 56.1733 23.916 55.9173 24.188C55.6613 24.444 55.3093 24.572 54.8613 24.572H47.8533ZM47.8533 13.244V9.956H55.7733C55.8853 10.132 55.9813 10.356 56.0613 10.628C56.1573 10.9 56.2053 11.204 56.2053 11.54C56.2053 12.132 56.0773 12.564 55.8213 12.836C55.5653 13.108 55.2133 13.244 54.7653 13.244H47.8533ZM65.5702 21.356V14.396H69.6262V21.932C69.6262 22.332 69.5382 22.676 69.3622 22.964C69.2022 23.252 68.9382 23.508 68.5702 23.732C68.1062 24.036 67.5062 24.3 66.7702 24.524C66.0342 24.764 65.1942 24.884 64.2502 24.884C62.8582 24.884 61.6662 24.652 60.6742 24.188C59.6822 23.724 58.9222 23.036 58.3942 22.124C57.8662 21.196 57.6022 20.06 57.6022 18.716C57.6022 17.308 57.8742 16.148 58.4182 15.236C58.9622 14.308 59.6982 13.62 60.6262 13.172C61.5702 12.708 62.6182 12.476 63.7702 12.476C64.3302 12.476 64.8182 12.532 65.2342 12.644C65.6502 12.756 65.9942 12.884 66.2662 13.028V16.34C66.0582 16.18 65.7862 16.028 65.4502 15.884C65.1302 15.74 64.7622 15.668 64.3462 15.668C63.8022 15.668 63.3302 15.78 62.9302 16.004C62.5462 16.228 62.2502 16.564 62.0422 17.012C61.8342 17.46 61.7302 18.028 61.7302 18.716C61.7302 19.724 61.9462 20.468 62.3782 20.948C62.8262 21.428 63.4422 21.668 64.2262 21.668C64.5142 21.668 64.7782 21.636 65.0182 21.572C65.2582 21.492 65.4422 21.42 65.5702 21.356ZM69.6262 15.164H65.5462V8.852C65.7222 8.804 65.9702 8.756 66.2902 8.708C66.6262 8.66 66.9862 8.636 67.3702 8.636C68.1702 8.636 68.7462 8.772 69.0982 9.044C69.4502 9.3 69.6262 9.804 69.6262 10.556V15.164ZM72.1687 19.868V18.284H76.2487V19.868C76.2487 20.508 76.4087 20.972 76.7287 21.26C77.0647 21.548 77.5287 21.692 78.1207 21.692C78.4887 21.692 78.7927 21.66 79.0327 21.596C79.2727 21.532 79.4487 21.468 79.5607 21.404V18.284H83.6407V22.004C83.6407 22.404 83.5527 22.756 83.3767 23.06C83.2167 23.348 82.9687 23.596 82.6327 23.804C82.0727 24.156 81.4007 24.42 80.6167 24.596C79.8487 24.788 79.0087 24.884 78.0967 24.884C76.9447 24.884 75.9207 24.716 75.0247 24.38C74.1287 24.028 73.4247 23.484 72.9127 22.748C72.4167 22.012 72.1687 21.052 72.1687 19.868ZM83.6407 19.316H79.5607V12.884C79.7367 12.836 79.9847 12.788 80.3047 12.74C80.6407 12.692 81.0007 12.668 81.3847 12.668C82.1847 12.668 82.7607 12.804 83.1127 13.076C83.4647 13.332 83.6407 13.836 83.6407 14.588V19.316ZM76.2487 19.316H72.1687V12.884C72.3447 12.836 72.5927 12.788 72.9127 12.74C73.2487 12.692 73.6087 12.668 73.9927 12.668C74.7927 12.668 75.3687 12.804 75.7207 13.076C76.0727 13.332 76.2487 13.836 76.2487 14.588V19.316ZM91.1294 21.908C91.4014 21.908 91.6974 21.884 92.0174 21.836C92.3534 21.772 92.6014 21.692 92.7614 21.596V19.676L91.0334 19.82C90.5854 19.852 90.2174 19.948 89.9294 20.108C89.6414 20.268 89.4974 20.508 89.4974 20.828C89.4974 21.148 89.6174 21.412 89.8574 21.62C90.1134 21.812 90.5374 21.908 91.1294 21.908ZM90.9374 12.476C92.6814 12.476 94.0734 12.836 95.1134 13.556C96.1694 14.26 96.6974 15.364 96.6974 16.868V22.244C96.6974 22.66 96.5774 23.004 96.3374 23.276C96.1134 23.532 95.8414 23.756 95.5214 23.948C95.0094 24.252 94.3854 24.484 93.6494 24.644C92.9134 24.804 92.0734 24.884 91.1294 24.884C89.4494 24.884 88.0974 24.564 87.0734 23.924C86.0654 23.268 85.5614 22.284 85.5614 20.972C85.5614 19.868 85.8894 19.02 86.5454 18.428C87.2174 17.836 88.2334 17.468 89.5934 17.324L92.7374 16.988V16.82C92.7374 16.356 92.5294 16.028 92.1134 15.836C91.7134 15.628 91.1294 15.524 90.3614 15.524C89.7694 15.524 89.1774 15.588 88.5854 15.716C88.0094 15.844 87.4894 16.004 87.0254 16.196C86.8174 16.052 86.6414 15.836 86.4974 15.548C86.3534 15.244 86.2814 14.932 86.2814 14.612C86.2814 13.844 86.6894 13.3 87.5054 12.98C87.9694 12.804 88.5134 12.676 89.1374 12.596C89.7774 12.516 90.3774 12.476 90.9374 12.476ZM103.272 16.268V19.004H99.1921V15.644C99.1921 15.18 99.3121 14.78 99.5521 14.444C99.8081 14.092 100.136 13.788 100.536 13.532C101.096 13.196 101.752 12.94 102.504 12.764C103.256 12.588 104.032 12.5 104.832 12.5C106.576 12.5 107.448 13.116 107.448 14.348C107.448 14.636 107.408 14.908 107.328 15.164C107.248 15.404 107.152 15.612 107.04 15.788C106.88 15.756 106.688 15.732 106.464 15.716C106.24 15.7 105.992 15.692 105.72 15.692C105.32 15.692 104.896 15.74 104.448 15.836C104 15.932 103.608 16.076 103.272 16.268ZM99.1921 18.164H103.272V24.476C103.096 24.524 102.84 24.572 102.504 24.62C102.184 24.668 101.832 24.692 101.448 24.692C100.664 24.692 100.088 24.556 99.7201 24.284C99.3681 24.012 99.1921 23.508 99.1921 22.772V18.164ZM116.078 21.356V14.396H120.134V21.932C120.134 22.332 120.046 22.676 119.87 22.964C119.71 23.252 119.446 23.508 119.078 23.732C118.614 24.036 118.014 24.3 117.278 24.524C116.542 24.764 115.702 24.884 114.758 24.884C113.366 24.884 112.174 24.652 111.182 24.188C110.19 23.724 109.43 23.036 108.902 22.124C108.374 21.196 108.11 20.06 108.11 18.716C108.11 17.308 108.382 16.148 108.926 15.236C109.47 14.308 110.206 13.62 111.134 13.172C112.078 12.708 113.126 12.476 114.278 12.476C114.838 12.476 115.326 12.532 115.742 12.644C116.158 12.756 116.502 12.884 116.774 13.028V16.34C116.566 16.18 116.294 16.028 115.958 15.884C115.638 15.74 115.27 15.668 114.854 15.668C114.31 15.668 113.838 15.78 113.438 16.004C113.054 16.228 112.758 16.564 112.55 17.012C112.342 17.46 112.238 18.028 112.238 18.716C112.238 19.724 112.454 20.468 112.886 20.948C113.334 21.428 113.95 21.668 114.734 21.668C115.022 21.668 115.286 21.636 115.526 21.572C115.766 21.492 115.95 21.42 116.078 21.356ZM120.134 15.164H116.054V8.852C116.23 8.804 116.478 8.756 116.798 8.708C117.134 8.66 117.494 8.636 117.878 8.636C118.678 8.636 119.254 8.772 119.606 9.044C119.958 9.3 120.134 9.804 120.134 10.556V15.164ZM134.748 18.668C134.748 19.948 134.484 21.052 133.956 21.98C133.444 22.908 132.716 23.628 131.772 24.14C130.844 24.636 129.74 24.884 128.46 24.884C127.196 24.884 126.092 24.636 125.148 24.14C124.204 23.644 123.468 22.932 122.94 22.004C122.428 21.076 122.172 19.964 122.172 18.668C122.172 17.404 122.436 16.308 122.964 15.38C123.492 14.452 124.228 13.74 125.172 13.244C126.116 12.732 127.212 12.476 128.46 12.476C129.724 12.476 130.82 12.732 131.748 13.244C132.692 13.756 133.428 14.476 133.956 15.404C134.484 16.332 134.748 17.42 134.748 18.668ZM128.46 15.668C127.804 15.668 127.284 15.932 126.9 16.46C126.532 16.972 126.348 17.708 126.348 18.668C126.348 19.66 126.532 20.412 126.9 20.924C127.268 21.436 127.788 21.692 128.46 21.692C129.132 21.692 129.652 21.436 130.02 20.924C130.388 20.396 130.572 19.644 130.572 18.668C130.572 17.724 130.38 16.988 129.996 16.46C129.628 15.932 129.116 15.668 128.46 15.668ZM141.856 13.892H146.056V24.356L144.088 24.572C143.4 24.572 142.856 24.372 142.456 23.972C142.056 23.572 141.856 23.028 141.856 22.34V13.892ZM144.088 24.572V21.188H151.552C151.664 21.364 151.768 21.596 151.864 21.884C151.96 22.172 152.008 22.484 152.008 22.82C152.008 23.412 151.88 23.852 151.624 24.14C151.368 24.428 151.016 24.572 150.568 24.572H144.088ZM146.056 19.436H141.856V9.908C142.048 9.876 142.328 9.836 142.696 9.788C143.08 9.724 143.448 9.692 143.8 9.692C144.6 9.692 145.176 9.828 145.528 10.1C145.88 10.372 146.056 10.9 146.056 11.684V19.436ZM153.752 9.596C153.752 8.988 153.96 8.476 154.376 8.06C154.792 7.644 155.328 7.436 155.984 7.436C156.64 7.436 157.176 7.644 157.592 8.06C158.008 8.476 158.216 8.988 158.216 9.596C158.216 10.188 158.008 10.7 157.592 11.132C157.176 11.548 156.64 11.756 155.984 11.756C155.328 11.756 154.792 11.548 154.376 11.132C153.96 10.7 153.752 10.188 153.752 9.596ZM153.944 18.164H158.024V24.476C157.848 24.524 157.592 24.572 157.256 24.62C156.936 24.668 156.584 24.692 156.2 24.692C155.416 24.692 154.84 24.556 154.472 24.284C154.12 24.012 153.944 23.508 153.944 22.772V18.164ZM158.024 20.3H153.944V13.004C154.12 12.956 154.368 12.908 154.688 12.86C155.024 12.812 155.384 12.788 155.768 12.788C156.568 12.788 157.144 12.924 157.496 13.196C157.848 13.452 158.024 13.956 158.024 14.708V20.3ZM171.566 16.484V19.196H167.486V17.036C167.486 16.556 167.342 16.212 167.054 16.004C166.782 15.78 166.446 15.668 166.046 15.668C165.742 15.668 165.478 15.716 165.254 15.812C165.03 15.892 164.846 15.972 164.702 16.052V19.196H160.622V15.548C160.622 15.116 160.71 14.764 160.886 14.492C161.078 14.22 161.334 13.972 161.654 13.748C162.198 13.364 162.87 13.06 163.67 12.836C164.486 12.596 165.334 12.476 166.214 12.476C166.966 12.476 167.686 12.596 168.374 12.836C169.062 13.06 169.686 13.428 170.246 13.94C170.374 14.052 170.502 14.164 170.63 14.276C170.774 14.388 170.878 14.508 170.942 14.636C171.118 14.908 171.262 15.204 171.374 15.524C171.502 15.844 171.566 16.164 171.566 16.484ZM178.43 16.916V19.196H174.35V17.036C174.35 16.556 174.222 16.212 173.966 16.004C173.71 15.78 173.374 15.668 172.958 15.668C172.654 15.668 172.366 15.732 172.094 15.86C171.822 15.972 171.598 16.1 171.422 16.244L169.19 13.964C169.75 13.564 170.366 13.22 171.038 12.932C171.726 12.628 172.574 12.476 173.582 12.476C174.398 12.476 175.174 12.62 175.91 12.908C176.662 13.196 177.27 13.668 177.734 14.324C178.198 14.964 178.43 15.828 178.43 16.916ZM160.622 18.164H164.702V24.476C164.526 24.524 164.27 24.572 163.934 24.62C163.614 24.668 163.262 24.692 162.878 24.692C162.094 24.692 161.518 24.556 161.15 24.284C160.798 24.012 160.622 23.508 160.622 22.772V18.164ZM167.486 18.164H171.566V24.476C171.39 24.524 171.134 24.572 170.798 24.62C170.478 24.668 170.126 24.692 169.742 24.692C168.958 24.692 168.382 24.556 168.014 24.284C167.662 24.012 167.486 23.508 167.486 22.772V18.164ZM174.35 18.164H178.43V24.476C178.254 24.524 177.998 24.572 177.662 24.62C177.342 24.668 176.99 24.692 176.606 24.692C175.822 24.692 175.246 24.556 174.878 24.284C174.526 24.012 174.35 23.508 174.35 22.772V18.164ZM185.934 21.908C186.206 21.908 186.502 21.884 186.822 21.836C187.158 21.772 187.406 21.692 187.566 21.596V19.676L185.838 19.82C185.39 19.852 185.022 19.948 184.734 20.108C184.446 20.268 184.302 20.508 184.302 20.828C184.302 21.148 184.422 21.412 184.662 21.62C184.918 21.812 185.342 21.908 185.934 21.908ZM185.742 12.476C187.486 12.476 188.878 12.836 189.918 13.556C190.974 14.26 191.502 15.364 191.502 16.868V22.244C191.502 22.66 191.382 23.004 191.142 23.276C190.918 23.532 190.646 23.756 190.326 23.948C189.814 24.252 189.19 24.484 188.454 24.644C187.718 24.804 186.878 24.884 185.934 24.884C184.254 24.884 182.902 24.564 181.878 23.924C180.87 23.268 180.366 22.284 180.366 20.972C180.366 19.868 180.694 19.02 181.35 18.428C182.022 17.836 183.038 17.468 184.398 17.324L187.542 16.988V16.82C187.542 16.356 187.334 16.028 186.918 15.836C186.518 15.628 185.934 15.524 185.166 15.524C184.574 15.524 183.982 15.588 183.39 15.716C182.814 15.844 182.294 16.004 181.83 16.196C181.622 16.052 181.446 15.836 181.302 15.548C181.158 15.244 181.086 14.932 181.086 14.612C181.086 13.844 181.494 13.3 182.31 12.98C182.774 12.804 183.318 12.676 183.942 12.596C184.582 12.516 185.182 12.476 185.742 12.476Z" fill="white"/>
</svg>
